<?xml version="1.0" encoding="UTF-8"?>
<!DOCTYPE svg PUBLIC "-//W3C//DTD SVG 1.1//EN" "http://www.w3.org/Graphics/SVG/1.1/DTD/svg11.dtd">
<!-- Creator: CorelDRAW 2019 (64-Bit) -->
<svg xmlns="http://www.w3.org/2000/svg" xml:space="preserve" width="192.212mm" height="69.4058mm" version="1.1" style="shape-rendering:geometricPrecision; text-rendering:geometricPrecision; image-rendering:optimizeQuality; fill-rule:evenodd; clip-rule:evenodd"
viewBox="0 0 195.2771 70.5128"
 xmlns:xlink="http://www.w3.org/1999/xlink"
 xmlns:xodm="http://www.corel.com/coreldraw/odm/2003">
 <defs>
  <style type="text/css">
   <![CDATA[
    .fil1 {fill:#478180}
    .fil0 {fill:#00CCFF}
   ]]>
  </style>
 </defs>
 <g id="Layer_x0020_1">
  <metadata id="CorelCorpID_0Corel-Layer"/>
  <g id="_846584304">
   <path class="fil0" d="M132.7655 40.4572l-33.8979 -9.0508c0.3547,-0.5293 1.0078,-1.301 1.4853,-1.7135 0.0108,-0.0093 0.0265,-0.0218 0.0371,-0.0309l0.854 -0.7116c0.0109,-0.009 0.0253,-0.023 0.0362,-0.0318l0.1143 -0.0899c0.5678,-0.4062 1.2268,-0.8114 1.7307,-0.9918l0.2126 -0.0597c0.0167,-0.0054 0.0347,-0.0111 0.0513,-0.0168l0.4071 -0.1394c0.1315,-0.0259 0.2163,-0.0229 0.3467,-0.0434 0.2258,-0.0354 0.2604,-0.1505 0.4958,-0.1672 0.7278,-0.0524 1.3438,-0.0876 2.0628,-0.0229 0.8471,0.076 0.7731,0.2275 1.3555,0.2759 -0.0102,0.1185 -0.0483,0.3936 -0.0777,0.5348 -0.0708,0.3397 -0.1008,0.0533 -0.127,0.4857l-0.0992 0.5133c-0.0698,0.2235 -0.0127,0.3447 -0.0427,0.5696 -0.0353,0.2608 -0.1031,0.1773 -0.1305,0.4822 -0.0165,0.1825 0.0073,0.4273 0.004,0.6165 -0.0079,0.4684 -0.1429,0.4776 -0.1399,1.1531 0.003,0.608 -0.1032,2.5273 0.0395,3.0115l0.0618 0.1517c0.08,0.2784 -0.0105,0.6076 0.0654,0.8899 0.0377,0.1397 0.0625,0.127 0.0876,0.2528l0.116 0.5644c0.0052,0.0172 0.0114,0.0342 0.0157,0.0521 0.025,0.0983 0.0122,0.0908 0.0259,0.1784 0.0982,0.6246 0.3323,1.0142 0.4327,1.4048l0.9804 1.9463c0.0082,0.0116 0.0201,0.0278 0.0283,0.0398 0.2672,0.3909 0.5462,0.8414 0.8751,1.1662l0.3092 0.3037c0.302,0.2766 0.6487,0.7527 1.0466,0.8589 0,0.4494 -0.1015,0.5844 -0.1377,1.0192l-3.4241 11.0718c-0.0636,0.149 -0.1216,0.2856 -0.1924,0.42l-1.0283 1.8979c-0.4092,0.5689 -0.7506,1.1868 -1.1884,1.7385 -0.1155,0.1457 -0.13,0.2174 -0.2411,0.3711 -0.0949,0.1312 -0.165,0.2298 -0.265,0.348l-0.4256 0.459c-0.0097,0.0103 -0.0238,0.0246 -0.0331,0.0348l-0.8673 0.8343c-0.105,0.0959 -0.0471,0.0456 -0.1345,0.1376 -0.4083,0.4282 -1.2433,0.9852 -1.8048,1.19l-1.3797 0.4066c-0.7202,0.2138 -1.2649,0.0696 -1.8287,-0.0286l-0.6936 -0.1343c-0.0215,-0.0066 -0.0839,-0.0245 -0.1046,-0.0316l-0.2924 -0.1161c-0.4393,-0.1619 -0.8053,-0.376 -1.1707,-0.6668 -1.3682,-1.088 -2.1473,-2.5844 -2.5401,-4.2659 -0.2288,-0.979 -0.4224,-2.1677 -0.422,-3.1847 0.0003,-1.5241 -0.0637,-3.2207 0.0633,-4.6322 0.0563,-0.6232 0.0186,-1.003 0.1787,-1.5909l0.138 -1.6311c0.0635,-0.4297 0.0521,-0.6965 0.0964,-1.1287 0.0369,-0.3592 0.0658,-0.0897 0.1267,-0.4178 0.1707,-0.9213 0.2514,-1.8302 0.5045,-2.6939 0.0498,-0.1694 0.021,-0.1238 0.0534,-0.287l0.3567 -1.4127c0.1218,-0.3359 0.1272,-0.6715 0.2617,-0.9633 0.0066,-0.0142 0.0157,-0.0312 0.0219,-0.0462l0.0853 -0.391c0.0797,-0.3991 0.058,-0.1533 0.1741,-0.4382 0.0648,-0.1587 0.0723,-0.3505 0.114,-0.4985 0.0715,-0.2551 0.1305,-0.2434 0.189,-0.4237l0.8655 -2.2652c0.0067,-0.0144 0.0139,-0.0325 0.0203,-0.0474l2.2637 -4.0655 33.8979 9.0508zm0 0c-0.1167,0.243 -0.0349,0.1836 -0.0769,0.4675 -0.0362,0.2447 -0.0871,0.186 -0.1196,0.4252l-0.2503 1.3711c-0.0875,0.3882 -0.0769,1.0239 -0.2262,1.4187 -0.1588,0.42 -0.0498,1.0409 -0.1792,1.4552l-0.1351 0.4199c-0.0473,0.3403 -0.082,1.0874 -0.1888,1.4327 -0.1462,0.4713 -0.1722,1.0299 -0.1828,1.5186 -0.0105,0.4841 -0.1397,0.4147 -0.1363,1.0206 0.0034,0.5413 -0.1428,0.405 -0.1413,0.9475 0.0018,0.7309 -0.0945,0.5873 -0.1339,1.0232 -0.0286,0.3185 0.0443,0.7744 -0.0169,1.0755l-0.0993 0.408c-0.0524,0.6141 0.0124,1.255 -0.0407,1.8637 -0.0073,0.0862 -0.0026,0.0504 -0.0167,0.1707l0.0448 3.2807c0.0561,0.3175 0.0913,0.0534 0.1296,0.4149 0.0172,0.1614 -0.015,0.3798 -0.0009,0.5453l0.2759 1.4256c0.0401,0.3596 0.0582,0.0998 0.123,0.4215 0.0524,0.2612 0.0124,0.2519 0.1012,0.5112 0.0526,0.1537 0.1039,0.253 0.1509,0.3937 0.0565,0.1696 0.0677,0.3257 0.1276,0.4847l0.4294 0.9997c0.2481,0.5893 0.5602,1.0875 0.8726,1.6456l0.8741 1.1673c0.014,0.0141 0.057,0.0515 0.0713,0.0649l0.7661 0.7312c0.0093,0.0106 0.0212,0.0272 0.0306,0.0377 0.0091,0.0106 0.0209,0.0272 0.0305,0.0375 0.1659,0.1803 0.4057,0.266 0.5969,0.424l0.1731 0.1671c0.3043,0.2578 0.705,0.4506 1.0546,0.6471l0.9348 0.4267c0.0676,0.0318 0.1059,0.0697 0.2214,0.1189 0.1616,0.0692 0.2558,0.0679 0.4198,0.1247 1.2054,0.4182 1.8929,0.5331 3.1399,0.7514 0.8975,0.1571 1.039,0.1713 2.0631,0.1713 0.4822,0 1.8507,0.0622 2.2304,-0.016l1.721 -0.3272c0.3558,-0.1145 0.3932,-0.0751 0.7717,-0.1712l2.6965 -0.9145c0.6846,-0.272 1.3239,-0.6121 1.9502,-0.9744l2.0051 -1.264c0.0169,-0.011 0.0667,-0.0411 0.0838,-0.0522l1.2569 -0.9211c0.2878,-0.1903 0.3345,-0.3094 0.577,-0.512l0.8348 -0.7306c0.0105,-0.0093 0.0255,-0.0227 0.0362,-0.0318l1.5292 -1.5334c0.1797,-0.2015 -0.1188,0.1252 0.0649,-0.0712l0.4496 -0.5033c0.0097,-0.0103 0.0238,-0.0245 0.0335,-0.0346 0.0133,-0.0144 0.0539,-0.0544 0.0672,-0.069l0.6544 -0.7748c0.1047,-0.157 0.1681,-0.2183 0.2589,-0.3538l0.1362 -0.1568c0.5114,-0.6132 1.244,-1.7875 1.5654,-2.157 0.1527,0.6545 0.0487,0.9533 0.2853,1.5522 0.1265,0.3195 0.1083,0.7374 0.2591,1.1022l1.4313 3.6047 1.0576 1.4607c0.0187,0.0243 0.0409,0.0519 0.0603,0.0757 0.0124,0.0154 0.0501,0.0582 0.0627,0.0736 0.0661,0.0803 0.1275,0.1623 0.1848,0.2233l1.396 1.2585c0.0106,0.009 0.0254,0.0226 0.0366,0.0313 0.0158,0.0123 0.0638,0.0446 0.0805,0.0558l0.5371 0.3477c0.1336,0.0787 0.1781,0.0848 0.3118,0.1645l0.6297 0.3233c0.0234,0.0103 0.1413,0.0594 0.1438,0.0606l0.6011 0.2836c0.2523,0.0819 0.0074,-0.0044 0.1938,0.0786 0.5829,0.2596 1.7958,0.5534 2.4605,0.6032 0.7463,0.056 0.5033,0.2695 2.3841,0.2695 0.6246,0 1.6541,0.0779 2.2407,-0.0055 0.1965,-0.028 0.1974,-0.0708 0.3662,-0.1152 0.4223,-0.1114 0.7147,-0.1016 1.1211,-0.1672 0.0988,-0.0157 0.2703,-0.0817 0.3732,-0.1084l2.519 -0.7403 3.0839 -1.5467c0.8404,-0.5036 1.6483,-1.0622 2.3708,-1.7131l0.544 -0.4089c0.0105,-0.0091 0.026,-0.022 0.0365,-0.0314l2.7015 -2.8113c0.009,-0.0108 0.0222,-0.0259 0.0313,-0.0367l0.1873 -0.2211c0.1471,-0.1671 0.2677,-0.3116 0.4152,-0.4695l1.7482 -2.4714c0.088,-0.1264 0.1088,-0.1571 0.19,-0.2863l0.177 -0.2996c0.0075,-0.0128 0.0177,-0.0299 0.0253,-0.0427l0.7831 -1.3947c0.1146,-0.2442 0.1918,-0.361 0.3162,-0.6368 0.0217,-0.0487 0.0439,-0.0902 0.0641,-0.14l0.1732 -0.5754c0.0233,-0.2696 -0.0007,-0.6691 -0.0007,-0.9533 -0.38,-0.2545 -0.6588,-0.667 -1.0301,-0.9436l-0.6146 -0.4062c-0.7576,-0.3789 -2.4839,-0.9553 -3.0935,-0.0529l-0.625 1.0765c-0.0112,0.0167 -0.0444,0.0637 -0.0553,0.0808 -0.0216,0.0331 -0.0323,0.0495 -0.0528,0.0832 -0.3521,0.5748 -0.8747,1.4786 -1.2165,1.8462 -0.1363,0.1467 -0.0946,0.0909 -0.2104,0.2661l-0.428 0.5247c-0.013,0.015 -0.0503,0.0579 -0.063,0.0732l-0.2073 0.2692c-0.0089,0.0107 -0.0228,0.0252 -0.0321,0.0359 -0.0093,0.0106 -0.0233,0.0249 -0.0329,0.0354l-0.911 0.9264c-0.0484,0.054 -0.0254,0.0326 -0.098,0.1062l-0.305 0.2394c-0.012,0.0082 -0.028,0.0199 -0.0397,0.0284l-0.3293 0.2831c-0.1173,0.0962 -0.2126,0.1447 -0.3215,0.2229l-1.0989 0.6708c-0.0907,0.0474 -0.0354,0.0278 -0.1716,0.1006l-0.6816 0.2714c-0.1299,0.0423 -0.0313,0.0064 -0.1472,0.0569l-0.9816 0.3116c-0.7623,0.1641 -1.5675,0.237 -2.3576,0.1481 -0.1466,-0.0166 -0.2049,-0.049 -0.3874,-0.0891l-0.8239 -0.1969c-0.3519,-0.11 -0.7745,-0.3431 -1.0486,-0.585 -0.0105,-0.0093 -0.0248,-0.0236 -0.0354,-0.0328 -0.0105,-0.0091 -0.0256,-0.0225 -0.0362,-0.0315l-1.0449 -1.2694c-0.2482,-0.4983 -0.44,-0.9606 -0.5377,-1.5037 -0.0247,-0.1357 -0.0729,-0.2965 -0.0925,-0.3842 -0.1141,-0.5196 -0.1817,-2.0018 -0.1309,-2.5822 0.056,-0.6409 -0.022,-1.4479 0.075,-2.0693 0.0428,-0.2745 0.0927,-0.6668 0.1068,-0.9138 0.0213,-0.3689 0.0743,-0.5594 0.0694,-0.9516 -0.0019,-0.1514 -0.0147,-0.3131 0.016,-0.4602 0.0351,-0.1677 0.0823,-0.1512 0.1128,-0.3638 0.0216,-0.1522 0.0093,-0.275 0.0344,-0.4419l0.4117 -3.1268c0.0717,-0.2681 0.0723,-0.0485 0.1036,-0.373 0.0254,-0.263 0.0044,-0.2831 0.0552,-0.4894l0.239 -1.6665c0.0507,-0.2091 0.1061,-0.233 0.1172,-0.4952l0.2231 -1.2742c0.1093,-0.3547 0.0473,-0.9873 0.1743,-1.3229 0.1109,-0.2937 0.1065,-0.0588 0.1448,-0.3996 0.047,-0.4189 0.0525,-0.8443 0.1979,-1.2311l0.6994 -3.8603c0.0171,-0.1541 0.1081,-0.6851 0.1643,-0.8563l0.1546 -0.8664c0.0666,-0.407 0.176,-0.4812 0.2129,-0.8079 0.0323,-0.2848 0.057,-0.6813 0.1269,-0.8939l0.1856 -0.8351c0.0202,-0.1396 0.0271,-0.2853 0.062,-0.4145 0.0734,-0.2744 0.0956,-0.0689 0.1038,-0.4404l1.2654 -0.0186c1.0662,0.033 1.9952,-0.1176 3.159,-0.1174l2.8045 -0.0199c0.7533,-0.037 1.0907,-0.1194 2.1643,-0.1165l4.2431 -0.4533c0.0156,-0.0058 0.0322,-0.0148 0.047,-0.0209l0.7985 -0.3587c0.0147,-0.0067 0.033,-0.0136 0.0475,-0.0205 0.0142,-0.0066 0.0323,-0.0147 0.0462,-0.0216 0.4436,-0.2173 0.8489,-0.5685 1.1655,-0.9446 0.2673,-0.3178 0.4388,-0.7169 0.6303,-1.0709 0.0961,-0.1772 0.0544,-0.0313 0.1324,-0.2081 0.059,-0.1339 0.1047,-0.4658 0.1047,-0.6438 0.0089,-0.0049 0.0271,-0.0166 0.0297,-0.008 0.0056,0.0219 0.0822,0.0511 0.1083,-0.1907 0.0547,-0.5054 -0.0017,-1.0631 -0.0017,-1.5705 -0.1668,-0.0673 -0.1222,-0.1541 -0.2051,-0.3393l-0.1935 -0.2829c-0.2889,-0.4058 -0.2528,-0.3329 -0.6315,-0.5937l-0.7763 -0.3807c-0.0158,-0.0063 -0.0337,-0.0125 -0.0506,-0.0175 -0.2009,-0.0593 0.1327,0.0212 -0.1158,-0.0202l-2.9195 -0.2115c-0.9514,-0.1041 -3.7227,-0.0767 -4.2125,-0.144l-2.1264 -0.1198c-0.6066,0.0001 -1.0558,-0.0853 -1.5822,-0.1235 -0.0185,-0.0012 -0.0368,-0.0037 -0.0564,-0.0049l-1.425 -0.0072c-0.4771,0.0026 -0.6475,-0.0685 -1.0886,-0.0685 0.0697,-0.2994 0.0709,-0.6146 0.1665,-0.8545 0.1264,-0.3177 0.1508,-0.6044 0.1716,-0.9172 0.033,-0.4889 0.1734,-0.7146 0.2484,-1.1808 0.0509,-0.3156 0.0058,-0.3837 0.0935,-0.6553 0.0574,-0.1788 0.0833,-0.39 0.1228,-0.5575 0.0551,-0.2321 0.0504,-0.4295 0.1034,-0.6452l0.3206 -1.7889c0.0219,-0.1952 0.1527,-0.3658 0.2593,-1.1699 0.0507,-0.3806 0.0425,-0.3093 0.15,-0.5988 0.1278,-0.3433 0.0604,-0.8409 0.2242,-1.205 0.1366,-0.3046 0.0788,-0.1648 0.1342,-0.5462 0.1123,-0.7721 0.1533,-1.8221 -0.3871,-2.444l-0.067 -0.0693c-0.2983,-0.3384 -0.641,-0.7397 -1.0614,-0.9123 -0.3512,-0.1444 -0.6711,-0.3104 -1.0418,-0.3877l-1.1367 -0.1518c-0.5256,-0.045 -0.5977,-0.1406 -1.1582,-0.1393l-1.4326 -0.0651c-0.7811,-0.0631 -2.0476,-0.0247 -2.8594,-0.0047l-1.4627 0.1683c-0.4496,0.1679 -0.8283,0.2733 -1.211,0.5613l-0.2888 0.2554c-0.0311,0.0326 -0.0944,0.1025 -0.0978,0.1064 -0.0925,0.0945 -0.0629,0.0499 -0.1724,0.1679 -0.2359,0.2532 -0.3492,0.6407 -0.4723,0.9569 -0.1511,0.3885 -0.1393,0.8018 -0.2578,1.1713l-0.5983 2.9406c-0.0325,0.3499 -0.0064,0.07 -0.0844,0.3239 -0.1204,0.3924 -0.0362,0.8742 -0.2129,1.2162 -0.2142,0.4141 -0.0638,1.0196 -0.2942,1.471 -0.0748,0.1461 -0.0359,0 -0.0639,0.1791 -0.0686,0.4377 -0.033,0.8596 -0.1768,1.2176 -0.1512,0.3772 -0.1122,0.7776 -0.2027,1.2267l-0.1215 0.6267c-0.0325,0.3488 -0.1057,0.2128 -0.1331,0.6157 -0.0302,0.4461 -0.0612,0.2877 -0.1365,0.612l-6.196 -0.07c-0.4411,-0.0006 -0.9413,0.0133 -1.3314,0.1662 -0.8006,0.3135 -1.2608,0.7493 -1.5946,1.5361 -0.0954,0.2249 -0.0963,0.487 -0.1846,0.7l-0.1949 0.7581c-0.0226,0.1609 -0.0144,0.2933 -0.0356,0.4406 -0.0558,0.3895 -0.118,0.3345 -0.1254,0.8274l-0.2609 1.5766c-0.076,0.4307 -0.0116,0.9115 -0.0151,1.3469 -0.0011,0.1221 -0.0118,0.3594 0.0061,0.4701 0.0434,0.2671 0.1637,0.4814 0.5204,0.8408l1.1069 0.5928c0.3015,0.0631 0.3907,0.1586 0.6517,0.1667 0.2994,0.0094 1.1128,0.0853 1.6507,0.0203 0.2508,-0.0303 0.3711,-0.0232 0.5741,-0.0163l0.627 -0.0167c0.0156,0.0007 0.0349,0.0027 0.05,0.0037l0.3568 -0.01c0.9276,-0.1732 1.6819,-0.1468 2.6929,-0.1468 -0.0318,0.3805 -0.0134,0.0615 -0.0798,0.2607 -0.0162,0.0492 -0.0215,0.0155 -0.0465,0.1576l-0.1831 1.11c-0.0835,0.2726 -0.0567,-0.0881 -0.0976,0.3108l-0.1373 0.9513c-0.0079,0.0992 0.0039,0.0801 -0.0207,0.1835 -0.0532,0.2229 0.0134,-0.0593 -0.0586,0.1457l-0.0584 0.2819c-0.0106,0.1691 0.0075,0.2078 -0.0253,0.3848 -0.076,0.4078 -0.1675,0.7642 -0.1771,1.182 -0.012,0.5252 -0.0147,0.2657 -0.1379,0.594 -0.0711,0.1893 -0.0362,0.3145 -0.0694,0.5577 -0.0732,0.5358 -0.0489,0.6492 -0.1808,1.1178 -0.1186,0.4207 -0.1053,0.7795 -0.1575,1.4041 -0.0293,0.3488 -0.1222,0.2168 -0.1381,0.6106 -0.0312,0.7715 -0.0631,0.5016 -0.1336,1.3636 -0.0284,0.3465 -0.1228,0.2154 -0.1388,0.6099 -0.0148,0.364 0.0325,0.3823 -0.0609,0.6836 -0.0413,0.1339 -0.0293,0.0455 -0.0505,0.1921 -0.0863,0.5926 -0.0246,1.2341 -0.1042,1.7672 -0.0003,0.0017 -0.0556,0.2258 -0.0723,0.2729l-0.2012 0.8142c-0.0363,0.1275 -0.049,0.1172 -0.1066,0.2338l-0.5198 1.522c-0.0297,0.0853 -0.0215,0.0808 -0.0456,0.1586l-1.3851 3.1745c-0.0068,0.0144 -0.0141,0.0328 -0.0207,0.0471l-0.135 0.2737c-0.0016,0.0031 -0.0629,0.1315 -0.0656,0.1382l-1.5569 2.7308c-0.0084,0.0116 -0.0213,0.0267 -0.0301,0.0382l-3.0006 3.873c-0.0098,0.0101 -0.0239,0.0244 -0.0338,0.0343l-0.0697 0.0663c-0.0656,0.0636 -0.0445,0.0401 -0.1037,0.1006l-1.7635 1.5033c-0.0117,0.0084 -0.0278,0.0203 -0.0395,0.0286 -0.9119,0.6717 -1.9067,1.1959 -2.9975,1.4948 -1.179,0.3234 -1.7726,0.3203 -3.0847,0.112 -0.3008,-0.0477 -0.1078,-0.0193 -0.2657,-0.0748l-1.7051 -1.0853c-0.0094,-0.0103 -0.024,-0.024 -0.0335,-0.0344l-0.5419 -0.8194c-0.0075,-0.0127 -0.0185,-0.0291 -0.026,-0.0419l-0.3875 -0.9736c-0.0859,-0.2352 -0.06,-0.3699 -0.1213,-0.6272 -0.1539,-0.6469 -0.0985,0.0519 -0.2472,-1.2502 -0.0271,-0.2373 0.0046,-0.5024 -0.007,-0.7415l-0.0719 -2.7913c0.0083,-0.3377 0.065,-0.3378 0.0732,-0.6753 0.0112,-0.4569 -0.0444,-1.0561 0.0057,-1.4915 0.0544,-0.4734 0.0337,-0.896 0.0575,-1.4397 0.0212,-0.4912 0.2069,-0.7888 0.2079,-1.2891 0.0008,-0.3484 0.0302,-0.4426 0.0584,-0.6902 0.0396,-0.3486 0.0016,-0.7017 0.0944,-0.9943 0.1653,-0.5216 0.1367,-1.1275 0.1861,-1.7195 0.029,-0.3475 0.1227,-0.2147 0.1381,-0.6106l0.0861 -0.6626c0.0862,-0.2744 0.0102,-0.4457 0.0964,-0.7202 0.0882,-0.2817 0.041,0.0429 0.0816,-0.2587 0.0382,-0.2842 0.0099,-0.449 0.085,-0.6635 0.1362,-0.3873 0.0336,-0.9156 0.1833,-1.3139 0.1432,-0.3814 0.1549,-0.5331 0.2033,-0.9535 0.0662,-0.5728 0.1776,-0.5501 0.2139,-0.8751 0.0349,-0.3119 0.0313,-0.7305 0.1491,-1.0079 0.0642,-0.1517 0.0671,-0.0802 0.1054,-0.2349 0.028,-0.1138 0.0226,-0.2424 0.0386,-0.3695l0.752 -3.5355c0.0602,-0.2165 -0.0026,0.0297 0.0568,-0.1472l0.4207 -1.8253c0.1704,-0.6123 0.2417,-1.3015 0.4622,-1.9198l0.1361 -0.4764c0.0373,-0.1395 0.0244,-0.0974 0.0581,-0.2821 0.0486,-0.2679 0.0197,-0.1099 0.0863,-0.3221l0.4089 -1.4284c0.0368,-0.0905 0.0996,-0.2144 0.1284,-0.2802 0.1199,-0.275 0.1427,-0.5075 0.2961,-0.7925 0.1744,-0.3241 0.1791,-0.5289 0.3351,-0.8217l0.6225 -1.6916c0.0069,-0.0208 0.0302,-0.0777 0.0382,-0.0979l0.2532 -0.6994c0.1802,-0.4864 0.3362,-1.0579 0.5632,-1.5119 0.0037,-0.007 0.0129,-0.0233 0.0156,-0.0305 0.003,-0.0075 0.0093,-0.0251 0.0119,-0.0332l0.1152 -0.5767c0.0668,-0.1748 0.0656,-0.0843 0.1401,-0.2683 0.0691,-0.1708 0.0806,-0.3948 0.1484,-0.6004 0.045,-0.1373 0.0539,-0.1437 0.0855,-0.2548l0.331 -1.0977c0.0056,-0.0161 0.014,-0.0328 0.0195,-0.0487l0.3396 -1.1577c0.0445,-0.1902 0.0286,-0.1753 0.0768,-0.3316 0.03,-0.0977 0.0372,-0.1319 0.0764,-0.2636l0.3522 -1.5533c0.0572,-0.2091 0.1361,-0.1771 0.2055,-0.5434l0.3653 -1.7441c0.2323,-0.6829 0.3202,-1.6739 0.4111,-1.9707l0.1196 -0.6293c0.036,-0.1393 0.0642,-0.1328 0.0879,-0.2522 0.0295,-0.1474 0.0065,-0.2479 0.0183,-0.3902 0.0148,-0.1785 0.1777,-0.7713 0.2021,-1.2951 0.041,-0.8915 0.2774,-0.9891 0.2727,-2.7214 -0.001,-0.4991 0.0065,-1.0011 0.0027,-1.4997 -0.0024,-0.3 -0.0426,-0.4104 -0.0685,-0.6803 -0.0341,-0.358 -0.3614,-1.1583 -0.6448,-1.5331 -0.0084,-0.0113 -0.0208,-0.0271 -0.0292,-0.0387l-0.5326 -0.5564c-0.7692,-0.6319 -1.6324,-0.6664 -2.5806,-0.8223l-1.3534 -0.148c-0.7134,-0.1343 -1.4114,-0.1511 -2.1134,-0.1175 -0.1149,0.0056 -0.2364,0.0199 -0.3682,0.0215 -0.9547,0.0113 -0.8431,0.0291 -1.7112,0.1277 -0.416,0.0472 -0.5481,-0.0046 -0.9794,0.1108l-0.9819 0.1753c-0.4996,0.0969 -1.2101,0.3475 -1.6028,0.6432l-0.8815 0.8198c-0.2093,0.2276 -0.3443,0.5494 -0.4985,0.7947 -0.1004,0.1594 -0.0166,-0.0555 -0.1133,0.227l-0.1389 0.4056c-0.0283,0.0809 -0.0229,0.083 -0.0464,0.1576l-0.4065 1.5672c-0.0729,0.7262 -0.1778,0.591 -0.2575,1.0356l-0.1064 0.79c-0.038,0.218 -0.1236,0.2413 -0.1679,0.5008 -0.0407,0.2411 -0.0694,0.4094 -0.0944,0.638 -0.0158,0.1459 0.0075,0.0948 -0.0211,0.216l-0.6424 3.084c-0.063,0.4439 -0.2177,0.7769 -0.2658,1.2314l-0.0623 0.3461c-0.0666,0.1933 -0.0349,-0.1034 -0.076,0.2643l-0.2919 1.6135c-0.0255,0.1769 -0.0872,0.3685 -0.1289,0.6194 -0.0497,0.2964 -0.0348,0.6309 -0.1767,0.9083 -0.0964,0.1888 -0.131,0.9174 -0.3003,1.4759 -0.0492,0.1632 -0.0187,0.0835 -0.0325,0.2255l-0.0525 0.2943c-0.0341,0.1674 -0.025,0.1207 -0.0381,0.307 -0.0048,0.0715 0.0009,0.1203 -0.0114,0.1929l-0.8668 4.5775c-0.0451,0.4464 0.048,0.3215 -0.1233,0.6934 -0.177,0.3845 -0.0614,0.8566 -0.1865,1.3106 -0.1463,0.5304 -0.1666,0.1876 -0.2417,1.2554l-0.1399 0.9488c-0.0295,0.3513 -0.0068,0.0668 -0.0865,0.322 -0.0821,0.2625 -0.0084,0.4171 -0.085,0.6636 -0.1934,0.6235 0.0391,0.9022 -0.4754,1.3619l-0.3446 0.4042c-0.1029,0.1028 -0.0966,0.0712 -0.2047,0.2037l-0.2715 0.3411c-0.0094,0.0102 -0.0241,0.0243 -0.0334,0.0345l-1.1582 1.1557c-0.0102,0.0097 -0.0243,0.0241 -0.0342,0.0339l-4.8827 3.4208c-0.0142,0.0066 -0.0317,0.0155 -0.0459,0.0221l-2.6082 0.9308c-0.2982,0.1317 -0.4167,0.0418 -0.6591,0.158 0,-0.3019 -0.0377,-1.7688 -0.1134,-1.996 -0.2449,-0.7362 -0.147,-1.1539 -0.3638,-1.8141 -0.1134,-0.3449 -0.1143,-0.8332 -0.2587,-1.1706l-0.2618 -0.9629c-0.099,-0.297 -0.1526,-0.6421 -0.2991,-0.9258l-0.665 -1.513c-0.0557,-0.1264 -0.0473,-0.1626 -0.1124,-0.2958 -0.0368,-0.0754 -0.0737,-0.1183 -0.1309,-0.2095 -0.1017,-0.1623 -0.0537,-0.0876 -0.143,-0.2655l-1.7515 -2.5358c-0.7623,-0.7593 -1.475,-1.4962 -2.3579,-2.134l-0.3995 -0.2813c-0.0128,-0.0075 -0.0299,-0.0177 -0.0427,-0.0252l-2.7361 -1.4159c-0.1204,-0.051 -0.1611,-0.06 -0.2494,-0.0907 -0.0723,-0.0251 -0.0858,-0.0278 -0.1511,-0.0531l-3.0005 -0.8112c-0.1423,-0.0377 -0.134,-0.0637 -0.2529,-0.0874 -0.1441,-0.0284 -0.2476,-0.0084 -0.3895,-0.0188 -0.2724,-0.0198 -0.3194,-0.0995 -0.5526,-0.1281 -0.8328,-0.102 -4.0267,-0.1247 -5.0327,-0.0751l-1.2165 0.1116c-0.4282,0.0942 -0.7444,0.0824 -1.1955,0.1991l-0.6875 0.1293c-0.0173,0.0051 -0.0341,0.0117 -0.052,0.016 -0.107,0.0256 -0.0887,0.0103 -0.1824,0.0217l-1.4883 0.3495c-0.0161,0.0057 -0.0323,0.0142 -0.0486,0.0198l-4.417 1.6404c-0.101,0.0455 -0.1011,0.0611 -0.2123,0.128 -0.173,0.1043 -0.0442,0.0395 -0.2336,0.1068 -0.4829,0.1713 -0.9449,0.5339 -1.3949,0.7832l-1.5497 0.9684c-0.2049,0.1118 -0.2204,0.1635 -0.3887,0.2921l-0.7808 0.5801c-0.0109,0.0092 -0.0264,0.0221 -0.037,0.0312 -0.0109,0.0091 -0.0265,0.0218 -0.0371,0.0311 -0.0109,0.0091 -0.0258,0.0221 -0.0368,0.0314l-2.2226 1.9967c-0.0721,0.072 -0.0965,0.097 -0.174,0.1663l-2.2482 2.516 -1.3362 1.8622c-0.0084,0.0118 -0.02,0.0282 -0.0278,0.0403l-1.2689 2.134c-0.0069,0.0135 -0.017,0.0304 -0.0244,0.0437 -0.0073,0.0132 -0.0182,0.0295 -0.0255,0.0426l-0.2632 0.4854c-0.0584,0.0944 -0.0835,0.1255 -0.1263,0.2141l-0.061 0.143c-0.0067,0.0142 -0.0153,0.0317 -0.0224,0.0458l-0.7439 1.57c-0.2851,0.5282 -0.3839,1.0578 -0.6034,1.5064 -0.0712,0.1457 -0.0679,0.0676 -0.1418,0.2664l-0.2867 0.734c-0.0402,0.1073 -0.0553,0.2331 -0.0757,0.3326 -0.076,0.366 -0.19,0.4832 -0.261,0.8281 -0.0115,0.0567 -0.0222,0.1094 -0.0391,0.1649 -0.0592,0.194 0.0049,-0.0241 -0.0568,0.1473 -0.0057,0.0158 -0.0135,0.033 -0.0192,0.0491l-0.1535 0.4589c-0.0303,0.1137 -0.0244,0.1651 -0.0559,0.2844 -0.132,0.4988 -0.3058,0.9428 -0.3743,1.4633 -0.0307,0.2356 0.0302,-0.0815 -0.014,0.1219l-0.2965 1.3368c-0.1414,0.4656 -0.0966,0.4886 -0.1866,0.9539 -0.1732,0.8977 -0.2115,1.9888 -0.3117,2.6956 -0.0376,0.2657 -0.0771,0.3744 -0.0792,0.6729l-0.022 3.1459c0.0577,0.6136 0.0066,1.4607 0.022,2.0993l0.2228 2.227c0.0477,0.235 0.0991,0.1595 0.1308,0.5523 0.0035,0.0412 0.0165,0.2415 0.0165,0.2418l0.4781 1.8471c0.0057,0.0164 0.012,0.0341 0.0174,0.051l0.197 0.6875c0.0068,0.0197 0.0515,0.1264 0.0581,0.1461l1.1294 2.6815c0.008,0.0123 0.0207,0.0274 0.0289,0.0394l1.1553 1.8393c0.5448,0.756 1.2609,1.5756 1.9762,2.1751l0.4726 0.4121c0.1127,0.1061 0.0535,0.0656 0.1808,0.1595 0.0084,0.0063 0.1037,0.0672 0.1231,0.0811l0.7137 0.5114c0.0117,0.0085 0.0265,0.0217 0.0378,0.0302 0.0115,0.0085 0.0264,0.022 0.0379,0.0305l3.0556 1.5684c0.0093,0.0049 0.0271,0.015 0.0364,0.0194 0.0081,0.0041 0.0254,0.0129 0.0331,0.0166 0.1556,0.0719 -0.0713,-0.0209 0.0988,0.0386l0.7734 0.2807c0.1913,0.0596 0.3667,0.0576 0.5538,0.1323 0.4911,0.1955 1.0025,0.2875 1.5585,0.4079l2.3896 0.3445c0.0982,0.0115 0.18,0.0212 0.2582,0.0363l0.1848 0.0602c0.357,0.1183 3.658,0.0825 4.3021,0.0545l1.098 -0.1924c0.3453,-0.074 0.8465,-0.0703 1.1948,-0.1689 0.2375,-0.0673 0.3968,-0.0766 0.5334,-0.0962 0.6306,-0.0902 1.2264,-0.2646 1.8403,-0.4539 0.1347,-0.0416 0.1987,-0.0404 0.3395,-0.0776l5.3127 -2.3732 1.7927 -1.2019c0.5787,-0.3691 1.0619,-0.8983 1.5875,-1.3389l1.1301 -1.048c0.0101,-0.0097 0.0251,-0.0232 0.0352,-0.0328l0.1716 -0.1685c0.01,-0.0101 0.024,-0.0247 0.0334,-0.0347l1.7963 -2.0834c0.1261,-0.1907 0.1678,-0.2218 0.2961,-0.3842l2.0271 -3.077c0.0492,-0.0817 0.0758,-0.1298 0.1308,-0.2096 0.0834,-0.1209 0.065,-0.069 0.1343,-0.2059l1.5656 -3.1304c0.0503,-0.1247 0.0519,-0.194 0.0958,-0.3125 0.0528,-0.1431 0.0425,-0.0911 0.1168,-0.2234l0.1847 -0.4961c0.0059,-0.0147 0.0152,-0.0315 0.0221,-0.0458 0.0068,-0.0139 0.0171,-0.0303 0.0241,-0.044l0.9008 -2.3658c0.0078,-0.023 0.0518,-0.1267 0.0582,-0.1458 0.0283,-0.0841 0.0604,-0.2463 0.0763,-0.3319 0.0463,-0.2456 0.1359,-0.3103 0.2158,-0.5332 0.0561,-0.1571 0.0594,-0.3977 0.1227,-0.5577l0.2423 -0.8465c0.0716,-0.3055 0.1878,-0.452 0.2548,-0.8342l0.2043 -0.8163c0.0589,-0.1773 -0.0031,0.0677 0.0568,-0.1476 0.0226,-0.0818 0.0176,-0.0912 0.0325,-0.1717l0.2618 -1.2352c0.3429,-0.0076 0.1858,-0.0296 0.3303,-0.0781l1.3489 -0.3528c0.0165,-0.0055 0.0345,-0.0114 0.051,-0.0171l1.3949 -0.5109c0.0166,-0.0058 0.0353,-0.0106 0.0517,-0.0163l0.4028 -0.1417c0.4191,-0.133 0.7797,-0.3473 1.1632,-0.5384l0.6221 -0.3306c0.8541,-0.4039 1.6286,-1.0141 2.3948,-1.553l1.0554 -0.8167c0.062,-0.0567 0.0028,-0.0134 0.0816,-0.0853l0.2927 -0.1866z"/>
   <path class="fil0" d="M70.7558 52.9788l2.6158 -6.1639c0.2156,-0.4093 0.3904,-0.9873 0.5445,-1.4289l0.2431 -0.7095c0.0268,-0.0775 0.0361,-0.1113 0.0693,-0.2032 0.0057,-0.0161 0.0119,-0.0342 0.0178,-0.0502l0.9635 -2.8476c0.0732,-0.188 0.1122,-0.3148 0.1553,-0.4572 0.0349,-0.1153 0.0295,-0.1089 0.0664,-0.2056 0.0059,-0.0146 0.0362,-0.0794 0.0421,-0.0944l1.0021 -3.2851c0.1227,-0.6268 0.159,-0.5026 0.2667,-0.8902 0.0483,-0.173 0.0446,-0.3395 0.0883,-0.5241l0.4177 -1.3518c0.2056,-0.6418 0.2646,-1.2567 0.4607,-1.8533l0.3099 -1.4597c0.1249,-0.3176 0.1019,-0.0019 0.1625,-0.4498 0.0677,-0.4991 0.1267,-0.5292 0.2364,-0.9206 0.0935,-0.3326 0.0476,-0.6701 0.1776,-0.9796 0.1023,-0.2442 0.134,-0.6625 0.2111,-1.0136l0.3133 -1.4563c0.0778,-0.278 0.0371,-0.2318 0.08,-0.5323 0.07,-0.4898 0.0489,0.0717 0.1291,-0.4155l0.5482 -2.9902c0.0395,-0.5624 0.1882,-0.9431 0.2015,-1.568l0.0385 -0.3017c0.1671,-0.5429 0.1472,-1.323 0.2844,-1.7572 0.0815,-0.2579 0.074,-0.0896 0.089,-0.4555 0.0107,-0.2518 0.0275,-0.3266 0.0734,-0.5392 0.1269,-0.5889 0.2907,-2.9027 0.3501,-3.1886 0.0416,-0.1995 0.0954,-0.1447 0.1206,-0.4239 0.0154,-0.1719 -0.0012,-0.434 -0.0021,-0.615 -0.003,-0.5539 0.1324,-0.5476 0.1409,-1.0156 0.0072,-0.3866 0,-0.7989 0.0913,-1.1339 0.1643,-0.6035 0.0123,-1.6861 0.0992,-2.2826 0.0679,-0.4687 0.1754,-3.3588 0.0641,-3.9894 -0.0312,-0.176 -0.1036,-0.251 -0.1205,-0.492l-0.213 -1.2162c-0.0056,-0.0158 -0.0139,-0.0326 -0.0194,-0.0486l-0.7563 -1.5578c-0.073,-0.1205 -0.0583,-0.0891 -0.1472,-0.1929l-1.3404 -1.0419c-0.142,-0.0547 -0.0809,-0.0256 -0.19,-0.0823 -0.0824,-0.0429 -0.0871,-0.0643 -0.2199,-0.1204 -1.2449,-0.5253 -2.2096,-0.4433 -2.7688,-0.5699 -0.2268,-0.0513 -0.1722,-0.0338 -0.3718,-0.042l-3.8596 -0.0054c-0.267,0.0132 -0.5039,0.0024 -0.7482,0.0102 -0.1095,0.0034 -0.6097,0.048 -0.8869,0.0872 -0.3727,0.0526 -0.7663,0.0049 -1.1451,0.0175 -0.1957,0.0064 -0.3338,0.0284 -0.3938,0.0445 -0.177,0.0475 -0.1863,0.0801 -0.4249,0.1172 -0.349,0.0546 -0.8079,0.3106 -1.0867,0.582 -0.0731,0.0711 -0.0582,0.0647 -0.129,0.1431l-0.3389 0.4098c-0.1676,0.2183 -0.2232,0.5045 -0.3236,0.7652 -0.006,0.0153 -0.0151,0.0319 -0.021,0.047 -0.236,0.5973 -0.2039,1.1352 -0.2039,1.7696l0.2289 3.3048c0.1647,0.6424 -0.0157,2.1408 0.094,2.9053 0.112,0.7781 0.0832,4.9077 0.0857,5.7673l-0.1333 7.08c-0.0066,0.3495 -0.0235,0.2436 -0.0972,0.5153 -0.1012,0.3718 -0.1456,2.8721 -0.176,3.5669 -0.0137,0.3176 -0.0517,0.24 -0.1113,0.501 -0.0781,0.3419 -0.0058,0.7437 -0.0455,1.0949l-0.3218 3.0974c-0.1069,0.4119 -0.0069,0.6937 -0.0751,1.0818 -0.0556,0.3166 -0.0906,0.0535 -0.1296,0.4148 -0.0194,0.181 0.0172,0.4279 0.001,0.6134 -0.0358,0.4035 -0.0937,0.0811 -0.1338,1.0233 -0.0148,0.3498 -0.0755,0.259 -0.1228,0.4895 -0.0396,0.1923 0.0012,0.3947 -0.0221,0.5905 -0.0203,0.1719 -0.0915,0.2909 -0.1152,0.4291 -0.0918,0.5378 0.0265,1.1447 -0.222,1.6671 -0.1074,0.226 -0.0692,0.5602 -0.1053,0.796 -0.0316,0.2066 -0.0048,0.4054 -0.034,0.5793 -0.0461,0.271 -0.1117,0.1345 -0.1636,0.3942 -0.0847,0.4243 -0.0623,0.9795 -0.1882,1.3628 -0.1381,0.4187 -0.1204,0.8158 -0.2048,1.2244 -0.0253,0.1235 -0.0518,0.1152 -0.0872,0.253 -0.0558,0.2172 -0.0036,0.3317 -0.068,0.5445l-0.3341 1.4355c-0.0911,0.2992 -0.062,0.7153 -0.1641,0.9925 -0.1056,0.2865 -0.0906,0.0578 -0.1452,0.3995 -0.0317,0.2005 -0.0325,0.3401 -0.0735,0.5388 -0.0749,0.3633 -0.1221,0.1628 -0.256,0.9691l-0.4973 1.8846c-0.0055,0.0163 -0.0137,0.0327 -0.0187,0.0492l-0.0291 0.1075c-0.0048,0.0191 -0.0059,0.038 -0.0105,0.0573l-0.096 0.3125c-0.0057,0.0164 -0.0117,0.0341 -0.0172,0.0507l-0.1494 0.4632c-0.0046,0.0196 -0.0058,0.0382 -0.01,0.0581l-0.4279 1.3417c-0.0059,0.0152 -0.0136,0.0329 -0.0196,0.0483 -0.0062,0.0151 -0.0143,0.0324 -0.0202,0.0477l-0.456 1.3817c-0.0061,0.0153 -0.0137,0.0327 -0.0197,0.0483l-1.2059 2.8776c-0.0883,0.2174 -0.0732,0.1889 -0.1773,0.367 -0.0396,0.0679 -0.0518,0.0936 -0.0959,0.1766l-0.1272 0.2128c-0.1249,0.1893 -0.1072,0.2231 -0.2073,0.4054 -0.3335,0.6072 -0.7844,1.1664 -1.228,1.6984 -0.1503,0.1802 0.0886,-0.106 -0.0613,0.075 -0.0127,0.0152 -0.0488,0.0595 -0.0616,0.0746l-0.4591 0.4258c-0.114,0.105 -0.2143,0.1765 -0.3421,0.2704 -0.5462,0.4012 -1.5612,0.6291 -2.2633,0.3056 -0.4327,-0.1994 -0.7198,-0.3936 -1.0713,-0.6982l-0.6412 -0.7881c-0.0737,-0.1254 -0.0591,-0.0841 -0.1379,-0.2025 -0.3624,-0.5434 -0.6165,-1.1756 -0.8769,-1.7773 -0.0064,-0.0149 -0.0142,-0.0327 -0.0208,-0.0475l-0.6183 -1.9674c-0.075,-0.3931 -0.1321,-0.1957 -0.284,-1.1455 -0.0649,-0.4067 -0.1598,-0.2976 -0.2163,-0.7364l-0.4864 -2.9842c-0.2479,-0.8583 -0.05,-1.3266 -0.3009,-2.0811 -0.1409,-0.4235 -0.1547,-1.1898 -0.1556,-1.6137 -0.002,-0.8909 -0.2068,-1.2407 -0.2015,-2.1802 0.0027,-0.4774 -0.0711,-0.649 -0.0705,-1.0864 0.002,-1.2916 -0.1369,-1.6038 -0.136,-2.1777 0.0017,-1.1281 0.0307,-2.4589 -0.1172,-3.4897 -0.1062,-0.742 -0.0127,-6.0203 -0.0182,-7.0612 -0.004,-0.7621 0.1408,-1.3771 0.1375,-2.1764 -0.0035,-0.7871 -0.0852,-2.8084 0.017,-3.5214 0.1949,-1.3597 0.0193,-2.5922 0.136,-3.4026 0.1368,-0.9481 -0.0202,-2.7324 0.2378,-4.5261 0.1125,-0.7832 -0.0155,-1.9741 0.077,-2.7811 0.0869,-0.7565 0.0232,-1.5588 -0.0567,-2.3085 -0.0464,-0.4379 -0.0137,-0.1258 -0.1566,-0.4558 -0.1315,-0.3034 -0.2104,-0.5755 -0.4826,-0.8105l-1.1842 -0.5178c-0.1658,-0.0386 -0.2207,-0.1005 -0.4318,-0.1459 -0.5456,-0.1174 -1.5096,-0.0607 -2.0561,-0.1566 -0.9189,-0.1611 -1.558,-0.1583 -2.4208,-0.0102 -0.6609,0.1134 -1.4662,0.0078 -2.1278,0.2545 -0.8175,0.3046 -1.5602,-0.0127 -2.5551,1.1884 -0.0091,0.0109 -0.0222,0.026 -0.0308,0.0372l-3.1609 6.7074c-0.0061,0.0151 -0.0134,0.0331 -0.02,0.048 -0.0322,0.073 -0.022,0.0463 -0.0673,0.1369l-1.7521 4.0327c-0.0205,0.0483 -0.0409,0.0963 -0.0597,0.1445l-1.3905 3.1692c-0.0316,0.081 -0.0427,0.1339 -0.0695,0.2025l-0.2003 0.4802c-0.0259,0.0592 -0.0302,0.0638 -0.0665,0.1377l-0.6752 1.5027c-0.0779,0.1333 0.0025,-0.0415 -0.0876,0.1166l-0.7143 1.6675c-0.0703,0.1452 -0.0372,0.0744 -0.0828,0.1896 -0.0014,0.0037 -0.0348,0.096 -0.0365,0.0998 -0.0062,0.0154 -0.0123,0.0338 -0.0186,0.0492l-0.3143 0.6385c-0.0065,0.0149 -0.0138,0.0328 -0.0201,0.0479l-0.254 0.5627c-0.0725,0.1518 -0.1049,0.286 -0.1806,0.4319l-0.7474 1.6348c-0.245,0.538 -0.5535,1.0914 -0.7311,1.6508l-0.4357 0.8574c-0.2016,0.3404 -0.3104,0.7834 -0.4891,1.1444l-0.3678 0.789c-0.0467,0.1131 -0.0403,0.0858 -0.0853,0.1869 -0.0467,0.1049 -0.052,0.1305 -0.1009,0.2395 -0.0061,0.0139 -0.0764,0.1529 -0.0911,0.1809 -0.1253,0.2407 0.0751,-0.1599 -0.0473,0.0887 -0.0346,0.07 -0.0284,0.0633 -0.063,0.1413l-5.0096 10.5751c-0.073,0.1471 -0.0157,0.0305 -0.0789,0.1935 -0.3457,0.8929 -0.8381,1.7575 -1.27,2.6092 -0.0069,0.0141 -0.0147,0.0323 -0.0214,0.0467 -0.0066,0.0145 -0.0131,0.0332 -0.0198,0.0481l-1.368 2.8516c-0.0075,0.0127 -0.0193,0.0286 -0.0268,0.0413l-1.3223 2.693c-0.2642,0.6348 -1.5126,2.7275 -1.5529,3.2112l-0.1362 0c0,-0.9838 -0.1436,-0.9655 -0.1372,-1.4963 0.0054,-0.4336 -0.001,-0.3853 -0.0931,-0.7234 -0.0825,-0.303 -0.0138,-0.5303 -0.0415,-0.8432 -0.0315,-0.357 -0.1316,-0.2222 -0.1401,-0.6764 -0.0053,-0.266 0.0293,-0.6292 -0.0023,-0.8827 -0.0356,-0.2868 -0.1261,-0.2889 -0.1335,-0.683 -0.0055,-0.2887 0.0184,-0.6033 0.0045,-0.8891 -0.0151,-0.307 -0.0717,-0.3683 -0.0712,-0.7455 0.0013,-0.8566 -0.0715,-1.5688 -0.1855,-2.4004 -0.1669,-1.2183 0.0481,-2.9156 -0.0156,-4.2037 -0.015,-0.3074 -0.0834,-0.376 -0.0739,-0.748 0.009,-0.343 0.0723,-0.3746 0.0754,-0.7452 0.0127,-1.6545 -0.1365,-3.3709 0.106,-4.9977 0.1797,-1.2074 0.0249,-3.2535 0.1891,-4.0981 0.0626,-0.3197 0.1111,-0.3082 0.1133,-0.7035 0.0015,-0.2785 -0.0217,-0.6151 -0.0015,-0.8863 0.0203,-0.2713 0.114,-0.4112 0.1339,-0.6825 0.0199,-0.2659 -0.0245,-0.5382 0.0157,-0.8009 0.0353,-0.2284 0.1185,-0.3707 0.1243,-0.6925 0.0177,-0.946 0.0917,-0.6836 0.1339,-1.1592 0.0587,-0.6666 0.0248,-1.2792 0.1445,-1.965 0.0451,-0.2591 0.0552,-0.0883 0.1077,-0.3004 0.0365,-0.1468 0.016,-0.3058 0.0183,-0.4584l0.1581 -1.407c0.1638,-0.497 0.1127,-0.6056 0.1748,-1.1864 0.0167,-0.1569 -0.0024,-0.3088 0.0148,-0.4614 0.0253,-0.2267 0.1517,-0.4362 0.1836,-0.6328 0.0357,-0.2174 0.0547,-0.6351 0.073,-0.8115l0.1152 -0.7015c0.0772,-0.2862 -0.0145,-0.511 0.0784,-0.8063l0.2089 -1.0161c0.0268,-0.1616 -0.0012,-0.3046 0.0236,-0.453 0.0429,-0.2577 0.0558,-0.0829 0.1082,-0.3001 0.0346,-0.1443 0.0122,-0.2409 0.0225,-0.3859l0.4433 -2.5509c0.0835,-0.2723 0.056,0.0855 0.0971,-0.3112l0.2038 -1.4977c0.0293,-0.2983 0.1926,-0.6284 0.2724,-1.429 0.0307,-0.3088 0.2047,-0.8224 0.2716,-1.4297 0.0101,-0.0927 0,-0.0835 0.0231,-0.1807l0.26 -1.2375c0.0346,-0.2252 0.0437,-0.1038 0.0969,-0.3113 0.0487,-0.1888 0.0109,-0.2619 0.0399,-0.4366 0.0434,-0.2592 0.0524,-0.0812 0.1055,-0.3029 0.0351,-0.1465 0.0082,-0.2183 0.0435,-0.3648 0.053,-0.2221 0.0621,-0.0434 0.1049,-0.3034 0.0238,-0.142 -0.0049,-0.2292 0.0302,-0.3782l0.1438 -0.6728c0.1532,-1.1067 0.6198,-1.6233 -0.0306,-2.8843 -0.3188,-0.6181 -0.8415,-0.9389 -1.5206,-1.0657 -0.5905,-0.1102 -4.2266,0.0473 -4.8863,0.1334 -0.1376,0.0181 -0.057,0.0051 -0.2485,0.0557 -0.4717,0.1247 -1.2277,0.075 -1.7756,0.1959l-1.0622 0.2197c-0.277,0.0505 -0.2802,0.1324 -0.5759,0.1888l-3.0417 1.791 -0.6764 0.8212c-0.2663,0.386 -0.4595,0.8441 -0.6224,1.2831l-0.234 0.6507c-0.006,0.0155 -0.0137,0.0326 -0.0193,0.0487l-1.0386 4.8822c-0.0363,0.1527 -0.0072,0.2405 -0.0218,0.3864l-0.6005 3.2107c-0.0735,0.2105 -0.0435,0.5397 -0.0945,0.7901l-0.1276 0.6888c-0.0311,0.225 -0.0417,0.0983 -0.098,0.3104 -0.0514,0.1927 -0.0187,0.2552 -0.0285,0.4477 -0.0244,0.4694 -0.1291,0.1442 -0.1408,0.6761 -0.0082,0.3894 -0.0553,0.478 -0.0642,0.8203 -0.0148,0.5573 -0.0499,0.2645 -0.1539,0.6659 -0.0533,0.2054 0.0015,0.3819 -0.0349,0.5887 -0.0429,0.2413 -0.0507,0.0938 -0.0777,0.3144 -0.0165,0.1361 0.0006,0.2712 -0.0047,0.4055 -0.0146,0.3771 -0.1417,0.378 -0.1673,0.6661 -0.0205,0.2316 0.0012,0.2166 -0.0409,0.5495 -0.0401,0.3195 -0.0474,0.4402 -0.0634,0.8265 -0.0174,0.4098 -0.1215,0.2607 -0.14,0.6765 -0.0204,0.4575 -0.0367,0.4017 -0.1093,0.7754 -0.0516,0.2647 -0.0119,0.5225 -0.0233,0.7934 -0.016,0.374 -0.1257,0.3706 -0.1408,0.744l-0.1119 1.0117c-0.0555,0.3776 0.0026,0.7955 -0.1101,1.1483 -0.1157,0.362 0.0178,0.8378 -0.064,1.2289 -0.1302,0.6217 -0.1202,0.2995 -0.1185,1.1066 0.0009,0.3774 -0.0558,0.4384 -0.0711,0.7455 -0.0263,0.5325 0.0443,1.0792 -0.1011,1.604 -0.2568,0.9264 -0.0989,3.8384 -0.1719,4.3874l-0.079 0.2411c-0.0033,0.0093 -0.0115,0.0267 -0.0143,0.0358 -0.0209,0.0673 -0.1336,8.1315 -0.0336,8.6974 0.0495,0.2814 0.0724,0.0727 0.1222,0.3542 0.0606,0.3429 0.0011,1.2879 0.0042,1.6968 0.0028,0.3692 0.0648,0.4003 0.0732,0.7434 0.0116,0.4657 -0.0588,1.0547 0.0815,1.4788 0.2142,0.6479 0.1456,1.6749 0.1942,2.3994 0.0244,0.3612 0.0938,0.1995 0.1291,0.545 0.0331,0.3207 -0.0473,0.5367 0.0491,0.8395l0.0881 0.7285c0.0296,0.3592 0.1317,0.2177 0.1378,0.679l0.2717 1.838c0.0464,0.3222 0.0154,0.0861 0.0872,0.3212 0.0686,0.2255 0.0697,0.5801 0.1092,0.7753l0.2953 1.4087c0.0162,0.1018 0.0198,0.2159 0.0364,0.2677 0.0353,0.1088 0.0694,0.0808 0.1204,0.2499 0.0729,0.2407 0.0454,0.4838 0.1372,0.7512 0.0069,0.0202 0.0501,0.1218 0.0583,0.1458l0.4134 1.0838c0.0721,0.1438 0.0627,0.1348 0.1379,0.2704l1.3546 1.6401c0.6079,0.4711 1.2521,0.7565 1.9971,0.9304 0.1557,0.0363 0.1732,0.0767 0.3287,0.1303l0.9167 0.1909c0.124,0.0418 0.1555,0.0676 0.3426,0.0973l2.8728 0.4339c0.1559,0.0346 0.1803,0.041 0.2701,0.0536 0.0444,0.0061 0.1733,0.0239 0.3187,0.0281 0.2769,0.0079 1.4181,0.0967 1.6889,0.1886 0.6877,0.2333 2.058,0.078 2.8772,0.0855l0.7024 -0.1143c0.1517,-0.0386 0.189,-0.0144 0.3467,-0.0616l3.1396 -1.4888c0.0151,-0.0129 0.0579,-0.0503 0.0729,-0.0631l0.5278 -0.4932c0.5403,-0.5253 1.1894,-1.383 1.5525,-2.0546 0.0097,-0.0182 0.0359,-0.0722 0.0458,-0.0905l1.4278 -2.5192c0.0444,-0.0776 0.1137,-0.1728 0.1576,-0.2506l0.9287 -1.6576c0.1032,-0.189 0.1898,-0.3831 0.2741,-0.5426 0.081,-0.1535 0.0694,-0.1309 0.149,-0.2594l1.3351 -2.544c0.3879,-0.699 0.7535,-1.6378 1.1441,-2.259 0.0974,-0.1552 0.0827,-0.0737 0.1635,-0.2448l2.5074 -5.1828c0.0071,-0.0139 0.0165,-0.0311 0.0237,-0.0447 0.0067,-0.0137 0.0169,-0.0304 0.024,-0.044 0.0069,-0.0135 0.0174,-0.0301 0.0244,-0.0436l0.8643 -1.7901c0.0567,-0.1283 0.0708,-0.1579 0.1261,-0.2821l0.9679 -2.0265c0.0245,-0.0483 0.045,-0.088 0.0691,-0.1353l0.9971 -2.2014c0.0602,-0.1501 -0.0148,0.0261 0.0666,-0.1377l0.6139 -1.2918c0.0689,-0.1361 0.0723,-0.1398 0.153,-0.3234l2.0268 -4.3021c0.0647,-0.1359 0.0871,-0.1975 0.1233,-0.3531 0.008,0.0128 0.0152,0.0212 0.0165,0.0425 0.0009,0.0206 0.0119,0.0341 0.013,0.0424l0.0222 0.3385c0.024,0.2806 -0.0029,0.3828 -0.0149,0.6174 -0.0161,0.3113 0.0992,0.8247 0.1019,1.2024 0.0037,0.4448 -0.0233,0.926 -0.0043,1.3654 0.0191,0.4398 0.1405,0.6522 0.1381,1.2229 -0.0014,0.3847 -0.0121,0.9295 0.0345,1.179 0.0307,0.1636 0.091,0.2482 0.1034,0.52l0.0174 0.9014c0.0312,0.3652 0.1225,0.4464 0.1176,0.8696 -0.0026,0.2207 -0.0157,0.4474 0.0248,0.6558 0.1604,0.8245 0.0947,1.5709 0.2372,2.2756 0.0615,0.305 0.1218,0.2521 0.1458,0.5399 0.0419,0.5011 -0.014,1.1387 0.1806,1.5825 0.2035,0.4638 0.0385,1.1279 0.2816,1.6248 0.0797,0.162 0.0657,0.3297 0.0915,0.5944 0.0076,0.08 0.0603,0.4768 0.0908,0.5897l0.1065 0.5741c0.0398,0.3591 0.0088,0.0769 0.0745,0.2656l1.6806 5.7375c0.0084,0.0195 0.0342,0.0741 0.0426,0.0937l0.1355 0.3407c0.0063,0.0154 0.0131,0.0333 0.0193,0.0489 0.0062,0.0154 0.0128,0.0337 0.0187,0.0492l0.0379 0.0983c0.0079,0.0201 0.0314,0.0768 0.0398,0.0964l0.2324 0.5161c0.0066,0.0147 0.0145,0.0323 0.0211,0.047l1.2508 2.3562c0.0076,0.0123 0.0187,0.0292 0.0267,0.0411l0.3226 0.4943c0.0075,0.013 0.0173,0.0302 0.025,0.043l0.2847 0.3961c0.1123,0.1312 0.1847,0.2341 0.2969,0.3834l1.0759 1.2381c0.0101,0.0097 0.0256,0.0227 0.036,0.0322l2.0542 1.6889c0.4146,0.2008 0.7881,0.505 1.2207,0.6854l2.2823 0.8368c0.5838,0.1578 2.2765,0.4234 2.9176,0.4177 0.0141,-0.0002 0.0326,-0.0009 0.047,-0.0008 0.0144,0.0003 0.0329,0.0011 0.0483,0.0017l1.0615 0.0104c0.614,0.0443 1.6322,-0.2039 2.2455,-0.3246l0.9898 -0.3034c0.2156,-0.0714 0.2957,-0.1166 0.4928,-0.1875l3.4477 -1.9973 1.1313 -0.9107c0.1464,-0.1164 0.1956,-0.1987 0.3578,-0.3228 0.6928,-0.5292 1.2305,-1.2304 1.7968,-1.8782l1.7879 -2.1597c0.0084,-0.0115 0.0214,-0.0268 0.0299,-0.0381l0.172 -0.2364c0.0086,-0.0115 0.0205,-0.0274 0.0292,-0.0389 0.0087,-0.0114 0.0211,-0.027 0.0296,-0.0383l0.149 -0.1912c0.009,-0.0111 0.0222,-0.0261 0.0313,-0.0371 0.0122,-0.0156 0.0484,-0.0596 0.0604,-0.0756l2.3439 -3.6453c0.3382,-0.5218 1.0196,-1.6773 1.241,-2.2299l0.2289 -0.4516c0.0483,-0.0872 0.0622,-0.1457 0.1077,-0.2326 0.0568,-0.1076 0.0693,-0.104 0.1303,-0.2099l0.7699 -1.6122c0.0084,-0.0193 0.0334,-0.076 0.0425,-0.0937 0.0621,-0.1243 0.0253,-0.0591 0.0743,-0.1295z"/>
   <polygon class="fil1" points="160.6731,61.2129 160.8093,61.2129 160.8093,61.0561 "/>
   <polygon class="fil1" points="98.8676,31.4064 98.8676,31.4745 98.9471,31.4178 "/>
   <polygon class="fil1" points="70.7558,52.9788 70.7558,53.0468 70.8355,52.99 "/>
  </g>
 </g>
</svg>
